<?xml version="1.0" encoding="UTF-8"?>
<svg width="36px" height="36px" viewBox="0 0 36 36" version="1.1" xmlns="http://www.w3.org/2000/svg" xmlns:xlink="http://www.w3.org/1999/xlink">
    <title>export/service/AIStudio-dark</title>
    <g id="export/service/AIStudio-dark" stroke="none" stroke-width="1" fill="none" fill-rule="evenodd">
        <g id="aistudio" transform="translate(0, 4)" fill="#D7D7D7">
            <path d="M26.2863345,14.4166523 C25.6945261,14.6187755 25.1242158,14.8792512 24.5837952,15.1942466 C22.7359724,16.2749965 21.5449515,16.9995386 22.9554108,18.5183485 C23.3564534,18.9488295 23.9224532,19.1761963 24.4354851,19.3793106 L24.5716882,19.4323628 C25.0771532,19.629414 25.5251103,19.8037285 26.0063614,20.0886949 C26.505773,20.3842717 26.9476765,20.75109 27.3169384,21.2043077 C28.834748,23.0648987 28.6959783,25.7752167 26.9961043,27.4705355 C25.3060771,29.1579029 22.6015392,29.2505356 20.8003743,27.6827444 C20.338457,27.2632129 19.9330022,26.7852677 19.5942197,26.2609443 L19.5927064,26.2518497 C18.8390489,25.1135001 18.2791026,23.7705205 17.8916804,22.4714985 C17.4976118,21.136189 17.2459954,19.7627974 17.1410497,18.3743495 C16.9198817,15.5907335 17.2722175,12.791291 18.1761936,10.1497362 C19.0796745,7.53956585 20.5627755,5.08703647 22.5679885,3.17715574 C23.5607582,2.22979426 24.7018379,1.40217928 25.9488534,0.820120389 C27.1988957,0.235029943 28.551847,-0.0984412954 29.9501993,0.0258525299 C33.0299039,0.303239969 35.5133413,2.69362244 35.9370845,5.79338918 C36.3608276,8.8946717 34.6098604,11.8762077 31.7178135,12.9872733 C31.1472737,13.2055453 30.5600867,13.3298392 29.9698731,13.4571646 L29.9093384,13.4692908 C29.2994509,13.6011635 28.6895635,13.7315204 28.0842161,13.8861298 C27.4773554,14.0392234 26.8765482,14.2105064 26.2863345,14.4166523 L26.2863345,14.4166523 Z M11.0134245,6.19996431 C9.56278635,4.88579041 7.55810568,3.71462513 5.49236118,3.71612903 C2.99728704,3.72690254 0.821411341,5.4325487 0.190233993,7.87241241 C-0.457469101,10.3149448 0.586884776,12.8941268 2.74299972,14.1768343 C3.48172306,14.6148922 4.22491449,14.8000508 5.05299952,14.9249951 C5.56980798,15.0032735 6.08810581,15.0544556 6.607893,15.1056376 C6.8983185,15.132734 7.18874401,15.1613357 7.48065888,15.1944535 C8.26406306,15.281764 9.11597788,15.4097191 9.86810547,15.6821881 C11.2547011,16.1834709 11.7506585,16.5658308 11.4259777,18.0320454 C11.2998249,18.5617051 11.0586819,19.0563686 10.7200203,19.4801958 C10.3797457,19.8999683 9.98613255,20.2725001 9.5493821,20.5881362 C9.45108423,20.6634039 9.34087148,20.7416823 9.22619064,20.8244768 C8.90002045,21.0608173 8.53363751,21.327265 8.28044604,21.5786591 C7.27657325,22.5883406 7.07225427,24.1551181 7.78299927,25.3932257 C8.48474148,26.629102 9.9330264,27.2178729 11.2859777,26.8172904 C12.0306585,26.594498 12.6636371,26.0947206 13.165552,25.5226861 C13.6719349,24.9431249 14.0844881,24.2551782 14.4106583,23.5597047 C15.2834241,21.6960767 15.6766156,19.4862172 15.6915092,17.4479681 C15.7124945,15.3435275 15.3196428,13.2558395 14.5357646,11.3061245 C13.7493817,9.37325019 12.5549137,7.59542731 11.0134245,6.19996431 L11.0134245,6.19996431 Z" id="Shape"></path>
        </g>
    </g>
</svg>