<?xml version="1.0" encoding="UTF-8"?>
<svg width="36px" height="36px" viewBox="0 0 36 36" version="1.1" xmlns="http://www.w3.org/2000/svg" xmlns:xlink="http://www.w3.org/1999/xlink">
    <title>export/service/Deepseek-dark</title>
    <g id="export/service/Deepseek-dark" stroke="none" stroke-width="1" fill="none" fill-rule="evenodd">
        <g id="Deepseek" transform="translate(0, 5)" fill="#D7D7D7" fill-rule="nonzero">
            <path d="M24.6957432,0.00945455358 C24.4253873,0.0450561427 24.1626753,0.178879515 24.0207733,0.324621652 C23.8309782,0.51955294 23.7624301,0.685627286 23.7156307,0.769812941 C23.7146851,0.771693225 23.7137477,0.77357765 23.7128185,0.775466163 C23.1926777,1.73082255 22.9969962,2.77657515 23.0153496,3.79994048 C23.0153491,3.80041155 23.0153491,3.80088262 23.0153496,3.80135369 C23.0572733,6.00080566 24.0317492,7.86705868 25.8150686,9.15495502 C25.7637853,9.32027876 25.7074212,9.49867311 25.6505444,9.67222505 C24.9502489,9.32367974 24.2892464,8.9130492 23.7156307,8.34795778 C23.7142279,8.34701066 23.7128218,8.34606851 23.7114124,8.34513135 C22.5125075,7.1795494 21.3793327,5.8272074 19.9006446,4.72565575 C19.9001766,4.72518379 19.8997079,4.72471247 19.8992385,4.72424181 C19.5940967,4.49794286 19.2857366,4.28757497 18.9697484,4.08401482 C18.7235245,3.83553136 18.6459054,3.65664856 18.6294513,3.54130546 C18.6123665,3.42151793 18.6368022,3.31930549 18.7124161,3.1865653 C18.7880329,3.05382582 18.9202398,2.91104767 19.0484949,2.80638654 C19.1758673,2.70244612 19.3334071,2.62955736 19.2819222,2.64809631 L19.2833283,2.64668309 C19.5275069,2.5576064 19.8425202,2.33485966 19.9118941,1.93437677 C19.9814142,1.53305442 19.7509928,1.20354344 19.5434729,1.03692768 C19.1284344,0.703696541 18.6341001,0.620923016 17.9137017,0.624242516 C16.4996466,0.630762192 15.2604565,1.09660813 13.7907608,1.6616088 C13.7884122,1.66253863 13.7860684,1.66348086 13.7837296,1.66443545 C13.6325731,1.7243311 13.4563876,1.77262297 13.2676588,1.8156591 C11.9407666,1.5858494 10.5734489,1.50844211 9.14753017,1.6700886 L9.14612407,1.6700886 C6.25173453,1.99455 3.86504122,3.41341853 2.16721644,5.75878189 C0.131063671,8.57227982 -0.350211063,11.8180219 0.226677964,15.0993186 C0.83643331,18.572597 2.62263933,21.4790213 5.31566984,23.7134165 C8.11126669,26.0316856 11.3993896,27.1924867 15.0858593,26.9739123 C17.1758167,26.8527687 19.699212,26.4913308 22.4022516,24.3211381 C23.0718707,24.5815322 23.7357941,24.7694659 24.7308978,24.8553674 C25.7471289,24.9502844 26.6888145,24.8059085 27.3998418,24.6575043 C27.4007792,24.6575061 27.4017166,24.6575061 27.402654,24.6575043 C28.8845143,24.3426228 29.4259661,22.4975623 28.1619948,21.9029721 C28.1399593,21.8928861 28.1174317,21.8839236 28.0944978,21.8761188 C26.9174151,21.4616857 26.3226114,21.1918093 25.910689,20.9913897 C27.4359259,19.2652787 29.5555474,17.0136846 30.4133013,11.1887019 C30.4836566,10.7089859 30.4393152,10.4118475 30.4189257,10.1145896 C31.1664165,9.99719435 31.9139095,9.81845701 32.6055467,9.43620293 C34.8348459,8.21195047 35.7847284,6.09181874 35.9888335,3.77591437 C35.9888377,3.77450092 35.9888377,3.77308746 35.9888335,3.771674 C36.006228,3.56092476 36.0158928,3.30110736 35.9185244,3.00283575 C35.8211609,2.70456413 35.5716215,2.38156668 35.2365232,2.21421103 C35.2351186,2.2137356 35.2337125,2.21326452 35.2323049,2.21279782 C34.8502547,2.02458541 34.294163,2.13985189 34.0553259,2.32162262 C33.8164895,2.50339335 33.7193723,2.64267356 33.7248722,2.63820308 L33.7403399,2.62548342 C33.5837944,2.74580064 33.5000154,2.85462254 33.452072,2.90673133 L33.4548842,2.90249096 C33.00373,3.38705299 32.620931,3.61401694 32.0430718,3.58229087 C30.9989045,3.52372168 30.0462725,3.89254768 29.1800748,4.48539325 C28.7815819,3.66712503 28.1992567,2.99384124 27.3857794,2.62972306 C27.384843,2.62924994 27.3839056,2.62877886 27.3829672,2.62830985 C26.8760184,2.40322585 26.5258296,2.23048652 26.3030154,1.92448369 C26.1675721,1.73198924 26.107755,1.44981887 25.9641243,1.005835 C25.9627573,1.00158209 25.9613512,0.997341993 25.959906,0.993115265 C25.9211609,0.880100238 25.8747698,0.707953698 25.7335099,0.498458262 C25.5928484,0.289852362 25.2916167,0.0593169527 24.964325,0.00945455358 C24.8766329,-0.00386932296 24.7858623,-0.00241269104 24.6957432,0.00945455358 Z M24.8419866,2.06016103 C24.9195869,2.29997648 24.9383371,2.49739098 25.1316614,2.76964005 C25.1330583,2.77153146 25.1344645,2.77341602 25.1358797,2.77529363 C25.6230417,3.44766277 26.2966775,3.72812049 26.8022116,3.95257712 C27.6213155,4.31985966 28.0238351,4.73661341 28.1788694,5.65278424 C28.224184,5.92033856 28.4146374,6.13991853 28.6721749,6.22153237 C28.9297123,6.30314622 29.2110349,6.23307244 29.4008464,6.04002979 C30.1808323,5.24607567 30.9422142,4.96914628 31.9629192,5.02668939 C31.9633879,5.02668985 31.9638566,5.02668985 31.9643253,5.02668939 C33.0100722,5.08410081 33.8667951,4.56377206 34.4842129,3.90876456 C34.2667855,5.78989577 33.6169842,7.23234199 31.9137029,8.16705466 C31.9127645,8.16752367 31.9118271,8.16799475 31.9108907,8.16846788 C31.3161259,8.49718187 30.6588953,8.68675387 29.9619146,8.76912267 C29.7452517,8.79078763 29.4383186,8.85070853 29.2067921,9.1295157 C28.9752662,9.40832286 28.9775924,9.69625767 28.9818021,9.87715428 C28.981798,9.87856773 28.981798,9.87998119 28.9818021,9.88139465 C28.9951143,10.350522 29.0473667,10.5788102 28.9888333,10.9781191 C28.0820949,17.1334917 25.9163292,18.791421 24.2682622,20.7511279 C24.0310451,21.0326933 24.0425553,21.4485402 24.2949802,21.7164154 C24.2949802,21.7164154 24.4066141,21.8216547 24.5157512,21.8959053 C24.624889,21.9701559 24.7804424,22.063148 25.0149481,22.1828068 C25.4305539,22.3948715 26.2379166,22.726404 27.3225014,23.121241 C27.3297011,23.1502289 27.3558575,23.1879725 27.1045419,23.2413722 C26.4638605,23.3749612 25.6601409,23.4895243 24.8644856,23.4152085 C24.8626109,23.4152012 24.860736,23.4152012 24.8588613,23.4152085 C23.7114174,23.3164492 23.1218494,23.1958621 22.5569324,22.9134853 C22.2996081,22.7844528 21.9905701,22.8216806 21.7708736,23.0081765 C21.7044832,23.0646516 21.6412397,23.1055205 21.5754138,23.1594007 C21.2552657,22.9404276 20.9191566,22.6780717 20.5095236,22.332617 C19.0904669,21.1278022 17.9752481,19.6580548 16.9392143,18.115313 C15.9650978,16.6622992 15.0188461,15.1765418 13.7682619,13.9319284 C11.5773995,11.7473423 8.96424218,10.3675378 5.89501901,9.9167272 C5.16785143,9.80963255 4.41937726,9.83794389 3.69292965,9.97325942 C3.14143424,10.0745652 2.97863157,10.2725405 3.00671024,10.8297221 C3.11398546,13.1380459 3.76030295,15.3008107 4.87553323,17.3167951 C6.03036175,19.4109296 7.66869378,20.9422969 9.62844641,22.1022477 C9.70764288,22.1420464 11.3923116,22.9466926 12.3606684,22.3439234 C12.7998489,22.074016 12.6872185,21.7143241 12.5237858,21.4719139 C12.2876363,21.1064896 12.1190292,20.8188421 11.989435,20.4020413 C11.8656005,19.9801752 11.763905,19.3322591 12.3269199,19.2982494 C12.9295331,19.2649632 14.3875127,20.0481384 17.3948187,22.4244817 C18.5614942,23.3516537 20.1780058,23.4250627 21.3405804,23.341717 C18.9880608,25.1772606 16.9834564,25.4147112 15.0028945,25.5295145 C15.0024258,25.529514 15.0019571,25.529514 15.0014884,25.5295145 C11.6582238,25.7277409 8.78770821,24.7158274 6.23250397,22.5969049 C3.76768442,20.5518559 2.1963539,17.9853956 1.64552093,14.8477504 C1.11941921,11.855327 1.5374631,9.08859541 3.33153953,6.60959169 C4.82145745,4.5514294 6.7729293,3.39109581 9.30642925,3.10742018 C9.30689795,3.10742064 9.30736665,3.10742064 9.30783534,3.10742018 C10.6799559,2.95174147 11.9850864,3.00607391 13.2437537,3.24592468 C13.3386895,3.26386544 13.4362465,3.26242337 13.5306163,3.24168431 C13.7850781,3.18591549 14.0473632,3.11571785 14.31105,3.01131576 C15.708458,2.47419342 16.7363526,2.12573276 17.7857389,2.09266729 C17.6754211,2.21820465 17.5552275,2.30409311 17.4623156,2.46719319 C17.2676745,2.80887142 17.1340672,3.25897864 17.2035772,3.74623468 C17.2730901,4.23349 17.5396308,4.71577048 17.9783865,5.14399349 C18.0144163,5.17914059 18.054005,5.21040359 18.0965066,5.2372722 C18.418986,5.44139388 18.7302238,5.65589794 19.0442766,5.88880564 C20.3468699,6.85955132 21.4429995,8.15333859 22.710207,9.38532429 C23.4884038,10.1513976 24.3863917,10.7999425 25.4339918,11.2395813 C25.4358647,11.2400599 25.4377395,11.240531 25.4396162,11.2409945 C25.6495624,11.3269401 25.9511152,11.4308074 26.3100466,11.2735006 C26.6689779,11.1161945 26.8077301,10.7929141 26.8725215,10.5809803 C26.9884205,10.2017249 27.1299503,9.80819401 27.2550044,9.38108392 L27.2550044,9.3796707 C27.3166121,9.18236401 27.3438067,8.90058208 27.2423488,8.64192535 C27.1406973,8.38277295 26.9550082,8.21366978 26.7881499,8.09921599 C26.7872151,8.09827125 26.7862777,8.0973291 26.7853377,8.09638956 C25.2177091,7.03293248 24.4911441,5.65440151 24.4552854,3.77308722 C24.4442987,3.16057603 24.6421689,2.60964426 24.8419866,2.06016103 Z M19.7670567,10.8749479 C19.4868992,10.8601138 19.2105892,10.9093195 18.9542807,11.055851 C18.9096426,11.0898608 18.7182658,11.280838 18.6786676,11.3597118 C18.5548331,11.602122 18.6855188,11.7981081 18.8431918,11.8769818 C18.9389475,11.9276347 19.0676864,11.9900463 19.2088008,11.9900463 C19.5860633,11.9900463 19.9294549,12.0533175 20.2001628,12.278361 C20.532068,12.5540573 20.6447876,12.8566178 20.5432721,13.3298596 C20.4986341,13.5491142 20.4703754,13.9331947 20.5207731,14.1806702 C20.6388479,14.7602838 20.9207268,14.9466704 21.3152692,15.2788085 C21.5686979,15.4929978 22.0357433,15.6672864 22.4641242,15.6448544 C22.7398719,15.6332766 23.0275999,15.5324347 23.314867,15.4144859 C23.6474929,15.2733814 23.7706075,15.0416105 23.674851,14.7601253 C23.517178,14.3100383 23.2856522,13.9161666 23.0322235,13.5333756 C22.7111178,13.0434907 22.6095015,12.8625304 22.0464866,12.2091084 C21.4942713,11.6685698 21.1120021,11.2868643 20.6051447,11.0784639 C20.3319169,10.9688366 20.0472142,10.8897819 19.7670567,10.8749479 Z M19.2819222,12.659953 C19.0342532,12.659953 18.8375667,12.8576692 18.8375667,13.1051447 C18.8375667,13.3533438 19.0286289,13.5503357 19.2762978,13.5503357 C19.5239668,13.5503357 19.7220587,13.3526201 19.7220587,13.1051447 C19.7220587,12.9871958 19.6775107,12.8745041 19.5983143,12.7956303 C19.5529563,12.7449774 19.4957073,12.7106514 19.4337908,12.6882194 C19.3891521,12.6708527 19.3380797,12.659953 19.2819222,12.659953 Z" id="Shape"></path>
        </g>
    </g>
</svg>