<?xml version="1.0" encoding="UTF-8"?>
<svg width="36px" height="36px" viewBox="0 0 36 36" version="1.1" xmlns="http://www.w3.org/2000/svg" xmlns:xlink="http://www.w3.org/1999/xlink">
    <title>export/service/Grok-light</title>
    <g id="export/service/Grok-light" stroke="none" stroke-width="1" fill="none" fill-rule="evenodd">
        <g id="Grok" transform="translate(0, 0.5)" fill="#222222" fill-rule="nonzero">
            <path d="M35.2102507,0.000609371748 C35.0254679,0.00800610382 34.8427987,0.0824657971 34.7025728,0.224252428 L30.0592514,4.92525998 C30.0235298,4.94985171 29.9894713,4.97930654 29.95831,5.01081469 L13.5404276,21.7089977 C13.2599758,21.9941081 13.2433858,22.4478417 13.5033168,22.7521644 C13.7640078,23.0564871 14.2098145,23.1075081 14.5305481,22.8677387 L25.9918922,14.3032597 C26.0891763,14.230253 26.2114107,14.2050488 26.3140151,14.2327145 C26.4264998,14.2642226 26.4599648,14.3476401 26.4713653,14.3753058 C27.8249826,17.6767459 27.0958746,21.4361586 24.6128496,23.9514318 C22.4140766,26.1769836 19.3950031,26.997529 16.3252333,26.2013716 C16.1466257,26.1552621 15.953554,26.1775722 15.787867,26.2644118 L11.7531649,28.3792647 C11.5046344,28.5091398 11.3465355,28.7673891 11.3418744,29.050194 C11.3374151,29.3329989 11.4876879,29.5948025 11.7308982,29.733131 C13.89927,30.9588752 16.2464985,31.5567978 18.5607964,31.5567978 C22.072905,31.5567978 25.5096161,30.1788561 28.1309669,27.5237175 C31.4751084,24.1392803 32.8375017,19.3440485 31.7871373,14.6769987 C31.7840972,14.6462591 31.7784084,14.6146787 31.770808,14.583939 C30.4361916,8.77106821 32.0543122,6.51805513 35.6021423,1.57511672 L35.8559808,1.21788815 C36.0885514,0.892816181 36.0337455,0.441975794 35.7327728,0.182225619 C35.5822864,0.0531189456 35.3950335,-0.00678736032 35.2102507,0.000609371748 Z M18.7463514,3.90460702 C15.1062762,3.83011336 11.5119497,5.24165037 8.81991582,7.96470453 C4.96959288,11.8632626 3.77042836,17.898239 5.83619574,22.981812 C7.11609019,26.13109 5.03545437,28.3416923 2.62387237,30.9053805 C1.76351597,31.819117 0.873732123,32.7653108 0.144861292,33.7797198 C-0.0823883201,34.0978753 -0.038555822,34.538281 0.250256319,34.8018736 C0.394662427,34.9340542 0.577010784,35 0.7594185,35 C0.940306151,35 1.12269015,34.9355189 1.26709626,34.8048754 L12.1643544,24.9525727 C12.2760792,24.8688071 12.3649908,24.7553824 12.418193,24.6193594 C12.5344779,24.328101 12.4627856,23.9940354 12.2385761,23.7773208 C10.1978898,21.8046027 9.74884155,19.5412027 9.73136081,17.9896181 C9.70475969,15.602683 10.6587657,13.2492611 12.3528774,11.5339878 C14.2506777,9.61122169 17.1050498,8.66522078 19.8077242,9.0679104 C19.9620107,9.08942816 20.125014,9.06440377 20.2679001,8.98986008 L24.5935516,6.7204082 C24.8481624,6.58745914 25.0062969,6.31895585 25.0032999,6.0284657 C25.0002167,5.73797586 24.8341497,5.4745994 24.5757387,5.34702979 C24.274006,5.1987109 23.9608841,5.05700819 23.6568713,4.94327143 C22.0638918,4.27924669 20.4009308,3.93846768 18.7463514,3.90460702 Z" id="Shape"></path>
        </g>
    </g>
</svg>